<?xml version="1.0" encoding="UTF-8"?>
<!DOCTYPE svg PUBLIC "-//W3C//DTD SVG 1.1//EN" "http://www.w3.org/Graphics/SVG/1.1/DTD/svg11.dtd">
<svg xmlns="http://www.w3.org/2000/svg" version="1.1" width="1054px" height="1156px" style="shape-rendering:geometricPrecision; text-rendering:geometricPrecision; image-rendering:optimizeQuality; fill-rule:evenodd; clip-rule:evenodd" xmlns:xlink="http://www.w3.org/1999/xlink">
<g><path style="opacity:0.968" fill="#659620" d="M 255.5,-0.5 C 430.167,-0.5 604.833,-0.5 779.5,-0.5C 851.158,3.98487 913.824,29.8182 967.5,77C 1019.44,126.38 1048.11,186.88 1053.5,258.5C 1053.5,303.167 1053.5,347.833 1053.5,392.5C 1044.44,494.027 995.111,568.86 905.5,617C 874.793,631.761 842.459,640.761 808.5,644C 707.611,645.135 606.777,645.969 506,646.5C 481.915,684.738 465.248,726.071 456,770.5C 442.38,839.184 437.38,908.517 441,978.5C 443.317,1034.94 447.151,1091.28 452.5,1147.5C 452.24,1149.19 451.573,1150.69 450.5,1152C 447.15,1153.49 443.816,1154.65 440.5,1155.5C 437.5,1155.5 434.5,1155.5 431.5,1155.5C 424.163,1154.74 417.163,1152.58 410.5,1149C 408.059,1145.99 406.893,1142.49 407,1138.5C 401.911,1082.59 398.245,1026.59 396,970.5C 393.619,912.211 396.619,854.211 405,796.5C 412.921,743.234 430.088,693.234 456.5,646.5C 396.836,645.667 337.169,645.167 277.5,645C 183.826,640.585 108.326,601.751 51,528.5C 16.2523,480.09 -0.914374,426.09 -0.5,366.5C -0.5,332.833 -0.5,299.167 -0.5,265.5C 2.87064,167.573 45.5373,92.0728 127.5,39C 167.148,15.838 209.815,2.67136 255.5,-0.5 Z M 268.5,20.5 C 311.835,20.3333 355.168,20.5 398.5,21C 519.388,55.3141 620.888,119.481 703,213.5C 730.151,246.439 753.317,282.105 772.5,320.5C 708.953,313.381 645.287,305.548 581.5,297C 502.434,286.12 424.434,270.12 347.5,249C 295.86,234.507 246.526,214.507 199.5,189C 167.021,170.857 139.854,146.69 118,116.5C 115.246,111.992 112.746,107.326 110.5,102.5C 152.922,55.6207 205.589,28.2873 268.5,20.5 Z M 468.5,21.5 C 508.499,20.8333 548.665,20.5 589,20.5C 629.916,20.3386 670.749,20.8386 711.5,22C 752.678,51.2093 780.844,90.0426 796,138.5C 802.095,162.402 807.761,186.402 813,210.5C 825.245,240.411 845.078,263.911 872.5,281C 897.945,296.373 925.278,307.04 954.5,313C 972.677,316.906 991.01,319.739 1009.5,321.5C 1009.98,348.546 1009.15,375.546 1007,402.5C 1004.82,423.222 999.819,443.222 992,462.5C 952.792,397.825 896.625,355.159 823.5,334.5C 804.493,290.129 779.66,249.463 749,212.5C 672.838,123.647 579.338,59.9799 468.5,21.5 Z M 760.5,21.5 C 811.029,16.5493 857.362,28.3827 899.5,57C 962.605,101.873 998.772,163.039 1008,240.5C 1009.29,261.145 1009.79,281.812 1009.5,302.5C 974.639,299.787 941.972,289.954 911.5,273C 886.877,258.039 869.044,237.206 858,210.5C 852.454,187.893 847.12,165.227 842,142.5C 827.743,93.2757 800.577,52.9423 760.5,21.5 Z M 83.5,136.5 C 100.392,154.884 119.058,171.384 139.5,186C 191.325,218.24 246.658,242.907 305.5,260C 400.971,287.094 497.971,306.761 596.5,319C 643.772,325.178 691.106,330.845 738.5,336C 797.791,343.962 850.457,366.629 896.5,404C 921.271,425.6 940.938,451.1 955.5,480.5C 889.106,481.398 822.772,483.564 756.5,487C 733.906,479.935 710.906,474.601 687.5,471C 622.389,463.543 557.389,455.21 492.5,446C 418.843,435.269 346.177,419.936 274.5,400C 218.526,384.687 165.86,362.02 116.5,332C 85.9237,312.426 61.9237,286.759 44.5,255C 48.2084,212.376 61.2084,172.876 83.5,136.5 Z M 44.5,310.5 C 82.1492,342.178 124.149,367.012 170.5,385C 229.02,407.839 289.02,425.839 350.5,439C 413.734,452.484 477.401,463.484 541.5,472C 592.497,478.416 643.497,484.75 694.5,491C 603.539,498.096 512.873,508.096 422.5,521C 372.377,528.358 322.711,538.025 273.5,550C 245.228,557.09 217.894,566.757 191.5,579C 182.885,583.887 174.718,589.387 167,595.5C 97.9356,553.017 57.6023,491.35 46,410.5C 44.5743,377.191 44.0743,343.858 44.5,310.5 Z M 908.5,500.5 C 926.016,500.23 943.516,500.563 961,501.5C 962.5,501.833 964,502.167 965.5,502.5C 966.407,505.057 967.407,507.557 968.5,510C 950.776,537.558 928.443,560.725 901.5,579.5C 873.8,548.148 841.133,523.315 803.5,505C 838.649,503.211 873.649,501.711 908.5,500.5 Z M 753.5,507.5 C 802.416,524.792 842.082,554.459 872.5,596.5C 844.613,612.181 814.613,621.348 782.5,624C 606.833,624.667 431.167,624.667 255.5,624C 236.918,622.551 218.918,618.551 201.5,612C 210.228,605.608 219.228,599.608 228.5,594C 251.891,582.758 276.225,574.091 301.5,568C 350.323,555.752 399.656,546.085 449.5,539C 550.607,524.856 651.941,514.356 753.5,507.5 Z"/></g>
</svg>
